<?xml version="1.0" encoding="UTF-8"?>
<svg width="45px" height="44px" viewBox="0 0 45 44" version="1.1" xmlns="http://www.w3.org/2000/svg" xmlns:xlink="http://www.w3.org/1999/xlink">
    <defs></defs>
    <g id="Page-1" stroke="none" stroke-width="1" fill="none" fill-rule="evenodd">
        <g id="正在加载" transform="translate(-166.000000, -295.000000)" fill="#FFFFFF" fill-rule="nonzero">
            <g id="Group-3" transform="translate(108.000000, 279.000000)">
                <g id="loading-(1)" transform="translate(58.000000, 16.000000)">
                    <path d="M45,22.7325859 C44.9398002,19.6712204 44.2826185,16.6149234 43.0685882,13.8221877 C41.8595746,11.029452 40.0987291,8.49520906 37.9415679,6.40192439 C35.7844067,4.30863972 33.2259132,2.65124484 30.4567203,1.56152038 C27.6925439,0.466727428 24.7126515,-0.0603951035 21.777909,0.00549521287 C18.8381498,0.0663170434 15.9134405,0.71001475 13.2345473,1.90110893 C10.5556541,3.08713463 8.12759362,4.81041982 6.12594871,6.92397844 C4.11928713,9.03753705 2.53402449,11.5413691 1.49056048,14.2479405 C0.442079804,16.954512 -0.0595855885,19.8638229 0.00563091258,22.7376544 C0.0608141058,25.6064174 0.682879193,28.4650434 1.82667629,31.0803821 C2.96545673,33.6957208 4.61593587,36.0677722 6.63764741,38.0242078 C8.65935894,39.9857118 11.0573195,41.5316 13.6509296,42.5503657 C16.239523,43.5741998 19.023766,44.055706 21.777909,43.9948841 C24.532052,43.9340623 27.2661284,43.325844 29.764422,42.2107771 C32.2677323,41.0957102 34.5302433,39.4839317 36.4014552,37.5072222 C38.2726671,35.5305127 39.75258,33.1888723 40.7207942,30.6596978 C41.3127594,29.1239466 41.7140917,27.5273735 41.9247911,25.9003896 C41.9799743,25.905458 42.0401742,25.905458 42.0953574,25.905458 C43.7006866,25.905458 45,24.5927202 45,22.9708047 C45,22.889709 44.9949833,22.8086132 44.9899667,22.7275174 L45,22.7325859 Z M40.389695,30.5228487 C39.3261644,32.9607904 37.781035,35.1706502 35.8897565,36.9953051 C33.9984779,38.8199601 31.7610503,40.2594101 29.3480397,41.2021484 C26.9350292,42.1499553 24.3464358,42.595982 21.777909,42.5351602 C19.2093822,42.4743384 16.6709553,41.906668 14.3482445,40.8625599 C12.0255337,39.8235203 9.91853908,38.31818 8.17776016,36.4783196 C6.4419979,34.6333907 5.07245138,32.4539418 4.16945367,30.1072328 C3.26645597,27.7554554 2.84505704,25.2414864 2.90525688,22.7376544 C2.96545673,20.2388908 3.51227201,17.7705382 4.50556949,15.5099935 C5.49886696,13.2494488 6.93362999,11.2017805 8.68945886,9.51397472 C10.4452877,7.82616892 12.5221825,6.49822562 14.7646268,5.62644605 C17.0020544,4.75466648 19.400015,4.34411912 21.777909,4.40494095 C24.1608196,4.46576279 26.503597,4.9979538 28.6507248,5.9660346 C30.7978527,6.92904692 32.7443145,8.32794902 34.3496437,10.0360288 C35.954973,11.7441085 37.2141531,13.7613659 38.041901,15.9306778 C38.8696489,18.0999898 39.2559313,20.4213563 39.1957314,22.7376544 L39.2057647,22.7376544 C39.2007481,22.8187501 39.1957314,22.8998459 39.1957314,22.9809417 C39.1957314,24.496419 40.3294952,25.738198 41.7843248,25.8953211 C41.5033922,27.4868256 41.0318267,29.0428508 40.389695,30.5228487 Z" id="Shape"></path>
                </g>
            </g>
        </g>
    </g>
</svg>